<svg version="1.0" xmlns="http://www.w3.org/2000/svg" width="666.667" height="666.667" viewBox="0 0 500 500"><path d="M8 138.9c0 .5 13.7 50 30.5 110s30.8 110.3 31.1 111.6l.6 2.5 21.6-.2 21.7-.3 10.7-39.5c26.7-97.6 33.9-125 35-132l1.2-7.5 1.3 9.1c.7 5 11.1 45.2 23.2 89.5l21.8 80.4 21.1.3c19.4.2 21.1.1 21.6-1.5 2-6.8 60.6-221.6 60.6-222.4 0-.5-8.1-.9-19-.9-18.8 0-19 0-19.5 2.2-.3 1.3-8.4 34.9-18.1 74.8-21 86.7-24.4 101.4-24.5 106-.1 5-1.4 1.4-2.7-7.5-.6-3.9-10.8-44.8-22.7-90.9-11.8-46.1-21.5-84-21.5-84.2 0-.2-8.7-.4-19.2-.4h-19.3l-23.8 85.3c-13.1 46.8-24.5 88.6-25.3 92.7-.8 4.1-1.6 7.6-1.8 7.7-.1.2-.8-3.7-1.4-8.5-.7-4.8-10.6-46.5-22-92.7l-20.8-84-20.2-.3c-11.5-.1-20.2.1-20.2.7zM325 154v16h64v193h37V170h65v-32H325v16z"/></svg>